<?xml version="1.0" encoding="iso-8859-1"?>
<!-- Generator: Adobe Illustrator 19.0.0, SVG Export Plug-In . SVG Version: 6.00 Build 0)  -->
<svg version="1.1" id="Calque_1" xmlns="http://www.w3.org/2000/svg" xmlns:xlink="http://www.w3.org/1999/xlink" x="0px" y="0px"
	 viewBox="0 0 483.547 535.078" style="enable-background:new 0 0 483.547 535.078;" xml:space="preserve">
<path style="fill-rule:evenodd;clip-rule:evenodd;fill:none;" d="M416.953,334.526c0,0,22.888-26.454,8.4-86.16
	c-13.511-55.996,17.206-62.661,26.16-62.16c8.954,0.501,27.848,4.504,31.68,24.96c2.853,14.708-12.221,28.255-21.6,20.16
	c-5.344-4.426-6.067-3.889-8.64-16.08c-0.983-7.3-6.97-11.051-12.72,0.24c-5.75,11.291,4.972,19.642,10.8,29.04
	c5.828,9.398,26.732,47.583,29.04,75.6c2.308,28.017,2.797,53.627-7.92,77.52c-10.717,23.893-14.4,33.36-14.4,33.36
	c-2.224-4.813-7.171-13.836-16.8-12.24c10.837-16.174,23.58-52.698-23.04-78C416.759,336.696,416.953,334.526,416.953,334.526z"/>
<path style="fill-rule:evenodd;clip-rule:evenodd;fill:#333745;" d="M461.594,231.326c-5.344-4.426-6.067-3.889-8.64-16.08
	c-0.983-7.3-6.97-11.051-12.72,0.24c-5.75,11.291,4.972,19.642,10.8,29.04c5.828,9.398,26.732,47.583,29.04,75.6
	c2.308,28.017,2.797,53.627-7.92,77.52c-10.717,23.893-10.8,28.56-10.8,28.56c-2.224-4.813-7.171-13.836-16.8-12.24
	c10.836-16.174,23.58-52.698-23.04-78c-1.155-4.07-0.96-6.24-0.96-6.24s19.288-21.654,4.8-81.36
	c-13.511-55.996,17.206-62.661,26.16-62.16c8.954,0.501,27.848,4.504,31.68,24.96C486.047,225.874,470.972,239.42,461.594,231.326z
	 M389.113,123.806c-14.26,6.068-38.083,12.675-43.2,13.68c-4.57,1.005-26.537,5.058-41.52,2.16
	c-14.983-2.898-31.144-6.617-44.4-13.68c-13.256-7.063-32.629-17.957-46.8-23.76c-14.171-5.803-31.786-5.881-48,6.96
	c15.668-6.524,27.645-22.343,92.88,20.88c42.741,23.467,94.08,15.12,94.08,15.12c3.899,5.714,9.146,16.666,9.36,22.8
	c6.035-4.557,22.94-13.493,36,9.6c10.102,17.177-6.224,39.792-22.08,39.12c6.261,9.894,29.418,62.195,39.84,126
	c13.279,6.662,23.842,13.694,30.48,32.16c5.662,15.539-2.092,38.859-12,46.08c14.763,1.254,21.896,5.919,24.48,19.92
	c1.874,11.695-4.385,24.374-17.28,25.92c-12.046,1.546-18.393,6.385-23.52,15.84c-4.763,8.001-14.979,19.256-37.68,12.72
	c-17.612-6.052-38.64-34.8-38.64-34.8c2.489,4.514,21.737,33.409,37.68,37.44c15.943,4.031,30.275,2.905,40.8-13.92
	s20.64-12.72,20.64-12.72c-1.333,7.513-5.721,57.313-76.56,48c-15.14-2.572-25.264-12.684-31.2-20.4
	c-5.936-7.716-24.493-34.005-29.76-43.92s-18-32.88-18-32.88c-19.905-7.545-39.982-18.679-44.64-21.6
	c-4.658-2.921-33.957-22.41-51.6-40.08c-17.643-17.67-31.998-33.221-42.24-50.64c11.221,11.264,35.344,10.02,16.8-25.92
	c-6.057-10.769-8.215-13.013-14.16-18.72c-5.945-5.707-24.86-11.842-17.76-40.8c15.012,20.135,27.861,26.002,41.52,14.88
	c13.659-11.122,2.485-34.35-8.4-43.68c-21.854-18.732-44.88-24.72-44.88-24.72s-47.469-11.465-72.24-35.28
	c-24.771-23.815-30.126-33.352-32.16-36.96c-2.034-3.608-2.262-6.96,6.96-10.56c9.222-3.6,29.709-14.998,76.56-7.68
	c28.971-30.938,75.583-59.92,121.2-19.44c20.043-13.785,39.506-23.735,76.32-22.56c36.814,1.175,57.029,24.166,69.84,24.72
	c12.811,0.554,25.114,0.183,34.32-11.76s1.68-22.8,1.68-22.8s7.736,25.526-20.64,21.12c-14.584-2.71-22.508-16.661-23.52-23.76
	c-1.013-7.099,4.485-20.664,31.92-24.96c27.435-4.296,54.11,6.796,60.24,24.24c6.13,17.444,3.585,44.65-12.24,63.6
	C422.316,106.485,403.373,117.738,389.113,123.806z M389.06,199.44c2.623-2.987,4.27-6.843,4.427-11.101
	c0.368-9.927-7.495-18.276-17.562-18.649c-10.067-0.373-18.526,7.372-18.893,17.299c-0.254,6.852,3.414,12.953,9.022,16.197
	C371.042,201.098,378.84,198.058,389.06,199.44z M344.923,410.225c2.397,4.34,5.468,11.971,10.111,19.82
	c21.491,36.339,49.906,16.528,10.8-24.24c-16.958-16.635-19.234-14.597-22.08-12.72c-2.006,1.323-2.515,4.647-1.194,10.015
	c0.239,0.971-10.402-21.515,8.154-29.455C324.703,383.123,342.526,405.885,344.923,410.225z M218.9,252.871
	c7.198-3.38,18.465-8.33,33.525-6.837c3.684-4.585,5.888-10.409,5.888-16.748c0-14.779-11.981-26.76-26.76-26.76
	c-14.779,0-26.76,11.981-26.76,26.76C204.794,239.488,210.503,248.356,218.9,252.871z M231.193,217.406
	c7.82,0,14.16,6.34,14.16,14.16c0,7.82-6.34,14.16-14.16,14.16c-7.82,0-14.16-6.34-14.16-14.16
	C217.034,223.745,223.373,217.406,231.193,217.406z M374.474,177.806c5.832,0,10.56,4.728,10.56,10.56
	c0,5.832-4.728,10.56-10.56,10.56c-5.832,0-10.56-4.728-10.56-10.56C363.914,182.534,368.641,177.806,374.474,177.806z
	 M220.154,30.206c-1.291-9.165,1.21-14.601,10.32-12.96c9.11,1.641,19.273,11.869,29.76,22.08c-23.949,6.169-33.36,14.4-33.36,14.4
	S221.444,39.37,220.154,30.206z M19.994,279.806c-7.601,0.459-16.636-3.239-16.8-17.28c0.81-21.438,17.28-83.33,45.36-123.36
	c24.771,23.815,55.065,36.473,65.28,38.64c10.215,2.167,23.681,6.11,45.84,24.48c22.304,18.491-6.671,43.542-31.44,10.32
	c-3.239,25.498-6.54,40.527,15.6,58.32c13.789,11.082,10.263,34.598-5.28,31.92c10.242,17.418,19.557,42.33,37.2,60
	c17.643,17.67,46.942,37.159,51.6,40.08c4.658,2.921,26.175,18.615,46.08,26.16c0,0,11.293,18.405,16.56,28.32
	c5.267,9.915,23.824,36.204,29.76,43.92c5.936,7.716,11.26,19.028,26.4,21.6c-21.625,8.603-71.142,36.799-137.52-40.32
	c-7.494-9.39-7.18-5.745-4.8,0.72c17.849,51.089-20.864,60.395-47.52,36c-26.656-24.395-47.343-79.279-54-97.44
	c-4.819-13.107-9.766-13.719-9.36,6c0.406,19.719-31.263,36.728-62.64,18s-37.615-41.463-22.32-69.84s46.658-57.672,50.16-82.08
	c3.502-24.408,0.301-45.086-14.64-49.68c-14.941-4.594-17.322,7.142-17.28,13.68C26.276,264.503,27.594,279.347,19.994,279.806z"/>
</svg>
