<?xml version="1.0" encoding="iso-8859-1"?>
<!-- Generator: Adobe Illustrator 19.0.0, SVG Export Plug-In . SVG Version: 6.00 Build 0)  -->
<svg version="1.1" id="Calque_1" xmlns="http://www.w3.org/2000/svg" xmlns:xlink="http://www.w3.org/1999/xlink" x="0px" y="0px"
	 viewBox="0 0 103.926 56.635" style="enable-background:new 0 0 103.926 56.635;" xml:space="preserve">
<path style="fill-rule:evenodd;clip-rule:evenodd;fill:#333745;" d="M95.31,23.321v5.292h8.471v6.087H95.31v5.689h8.568v6.684H87.71
	V16.955h16.216v6.366H95.31z M98.652,12.623c1.296,0,2.425-0.396,3.365-1.146c0.481-0.354,1.254-0.271,1.672,0.229
	c0.376,0.521,0.293,1.271-0.209,1.666c-1.317,1.021-2.989,1.625-4.828,1.625c-4.181,0-7.65-3.354-7.671-7.499
	C91.002,3.374,94.471,0.021,98.652,0c1.84,0,3.512,0.604,4.828,1.625c0.502,0.417,0.585,1.146,0.209,1.666
	c-0.418,0.521-1.191,0.604-1.672,0.229c-0.92-0.75-2.069-1.146-3.365-1.146c-1.442,0-2.78,0.583-3.762,1.5
	c-0.941,0.958-1.526,2.208-1.526,3.624s0.585,2.708,1.526,3.624C95.872,12.04,97.21,12.623,98.652,12.623z M86.55,14.997
	c-0.648,0-1.15-0.5-1.15-1.146V1.562c0-0.646,0.502-1.146,1.15-1.146c0.627,0,1.171,0.5,1.171,1.146v12.29
	C87.721,14.497,87.177,14.997,86.55,14.997z M83.039,45.601c-0.726,0.716-1.711,1.227-2.953,1.532
	c-1.243,0.305-2.783,0.458-4.623,0.458c-3.034,0-5.26-0.471-6.68-1.412c-1.42-0.941-2.13-2.592-2.13-4.953
	c0-0.769,0.024-1.545,0.073-2.327c0.048-0.782,0.153-1.412,0.315-1.89h6.341c-0.065,0.159-0.097,0.332-0.097,0.517
	c0,0.186,0,0.385,0,0.597c0,1.167,0.145,1.969,0.436,2.407c0.29,0.438,0.92,0.656,1.888,0.656c0.968,0,1.605-0.192,1.912-0.577
	c0.306-0.384,0.46-1.213,0.46-2.487c0-0.769-0.145-1.353-0.436-1.75c-0.29-0.398-0.759-0.782-1.404-1.154
	c-0.581-0.318-1.203-0.61-1.864-0.875c-0.662-0.265-1.324-0.517-1.985-0.756c-0.662-0.239-1.299-0.497-1.912-0.776
	c-0.613-0.278-1.162-0.603-1.646-0.975c-1.001-0.716-1.606-1.697-1.815-2.944c-0.21-1.246-0.315-2.865-0.315-4.854
	c0-1.406,0.137-2.592,0.411-3.561c0.274-0.968,0.75-1.751,1.428-2.347c0.678-0.597,1.597-1.028,2.759-1.293
	c1.162-0.265,2.646-0.398,4.453-0.398c1.646,0,3.025,0.106,4.139,0.318c1.113,0.213,2.025,0.577,2.735,1.094
	c0.709,0.517,1.218,1.2,1.525,2.049c0.306,0.849,0.46,1.91,0.46,3.183c0,0.822-0.024,1.472-0.073,1.949s-0.154,0.902-0.315,1.273
	h-6.293c0.032-0.212,0.048-0.391,0.048-0.537c0-0.145,0-0.404,0-0.776c0-0.928-0.138-1.571-0.411-1.93
	c-0.275-0.358-0.88-0.537-1.815-0.537c-0.936,0-1.533,0.179-1.791,0.537c-0.259,0.358-0.387,1.002-0.387,1.93
	c0,0.875,0.137,1.492,0.411,1.85c0.274,0.358,0.718,0.683,1.331,0.975c0.709,0.345,1.38,0.637,2.009,0.875
	c0.629,0.239,1.21,0.458,1.743,0.656c0.533,0.199,1.041,0.392,1.525,0.577c0.484,0.186,0.968,0.412,1.452,0.676
	c0.516,0.318,0.976,0.656,1.38,1.014c0.403,0.358,0.726,0.822,0.968,1.392c0.242,0.571,0.427,1.273,0.557,2.109
	c0.129,0.835,0.194,1.877,0.194,3.123c0,1.804-0.154,3.302-0.46,4.496C84.281,43.93,83.765,44.884,83.039,45.601z M80.657,2.729
	h-3.324v11.123c0,0.646-0.502,1.146-1.15,1.146c-0.627,0-1.15-0.5-1.15-1.146V2.729h-3.303c-0.648,0-1.15-0.542-1.15-1.166
	c0-0.646,0.502-1.146,1.15-1.146h8.925c0.627,0,1.15,0.5,1.15,1.146C81.807,2.187,81.284,2.729,80.657,2.729z M62.619,12.623
	c1.296,0,2.425-0.396,3.365-1.146c0.481-0.354,1.254-0.271,1.672,0.229c0.376,0.521,0.293,1.271-0.209,1.666
	c-1.317,1.021-2.989,1.625-4.828,1.625c-4.181,0-7.65-3.354-7.671-7.499C54.969,3.374,58.439,0.021,62.619,0
	c1.839,0,3.512,0.604,4.828,1.625c0.502,0.417,0.585,1.146,0.209,1.666c-0.418,0.521-1.191,0.604-1.672,0.229
	c-0.92-0.75-2.069-1.146-3.365-1.146c-1.442,0-2.78,0.583-3.763,1.5c-0.941,0.958-1.526,2.208-1.526,3.624s0.585,2.708,1.526,3.624
	C59.839,12.04,61.177,12.623,62.619,12.623z M52.88,14.935c-0.104,0.042-0.251,0.063-0.397,0.063c-0.46,0-0.899-0.271-1.066-0.729
	l-1.024-2.708h-5.079l-1.024,2.708c-0.188,0.458-0.627,0.729-1.087,0.729c-0.146,0-0.272-0.021-0.397-0.063
	c-0.606-0.229-0.899-0.896-0.69-1.5l4.619-12.269c0.188-0.458,0.648-0.75,1.108-0.729c0.481-0.021,0.92,0.271,1.108,0.729
	l4.619,12.269C53.779,14.039,53.486,14.706,52.88,14.935z M47.842,4.791l-1.693,4.478h3.386L47.842,4.791z M46.139,33.027
	c3.579,3.833,8.674,10.794,2.017,21.699c-1.421,2.328-3.858,2.58-5.317,0.465c-1.422-2.062-1.238-5.412,0.285-7.409
	c1.686-2.567,3.091-4.88,3.306-7.122c-8.38,15.045-20.339,21.495-27.559,8.643c-1.367-2.433-0.11-6.203,2.571-8.331
	c2.486-1.972,4.789-1.526,6.35-0.019c1.561,1.508,4.84,5.387,7.627,5.222c0.373-0.022,0.746-0.075,1.116-0.141
	c-0.313-0.072-0.626-0.16-0.937-0.279c-0.524-0.199-1.147-0.555-1.873-1.07c-0.734-0.521-1.637-1.27-2.715-2.254
	c-1.097-1-2.491-2.347-4.202-4.06c-3.547-3.508-12.897-19.215-4.457-22.982c1.132-0.479,3.138-0.529,3.64,1.365
	c0.502,1.893-1.842,4.058-2.252,4.874c0.161-0.07,0.673,0.014,3.254-2.129c2.581-2.144,9.64-4.111,13.008-0.213
	c0.504,0.584,0.271,1.449-0.509,1.985c-0.806,0.553-1.591,0.348-2.243-0.187c-0.918-0.621-1.919-1.247-3.112-1.478
	c0.11,0.061,0.219,0.123,0.327,0.188c0.491,0.297,1.07,0.752,1.732,1.365c0.656,0.606,1.438,1.42,2.345,2.435
	c0.893,1.001,1.997,2.299,3.3,3.878c1.276,1.547,2.281,2.804,3.026,3.784C45.377,31.927,45.797,32.513,46.139,33.027z
	 M39.716,34.074c-0.047-0.168-0.163-0.386-0.347-0.653c-0.185-0.267-0.454-0.618-0.807-1.05c-0.356-0.435-0.838-1.001-1.451-1.7
	c-0.639-0.73-1.164-1.314-1.571-1.75c-0.411-0.439-0.751-0.782-1.019-1.03c-0.27-0.248-0.497-0.417-0.68-0.506
	c-0.184-0.089-0.347-0.155-0.49-0.196c-0.243-0.034-0.526,0.01-0.848,0.131c-0.326,0.123-0.822,0.398-1.493,0.83
	c-0.682,0.439-1.157,0.789-1.417,1.045c-0.262,0.259-0.391,0.488-0.387,0.685c-0.03,0.16-0.01,0.328,0.062,0.502
	c0.072,0.174,0.21,0.419,0.414,0.736c0.204,0.316,0.514,0.714,0.929,1.192c0.412,0.476,0.972,1.093,1.675,1.848
	c0.673,0.723,1.22,1.296,1.645,1.72c0.421,0.422,0.774,0.739,1.058,0.952c0.284,0.213,0.507,0.362,0.673,0.447
	c0.165,0.086,0.333,0.129,0.503,0.131c0.201,0.035,0.459-0.034,0.773-0.208c0.311-0.172,0.764-0.497,1.356-0.971
	c0.582-0.467,0.971-0.817,1.172-1.054c0.2-0.235,0.311-0.455,0.333-0.66C39.791,34.389,39.763,34.243,39.716,34.074z M39.148,14.997
	h-6.773c-0.042,0-0.042,0-0.042,0c-0.021,0-0.021,0-0.021,0c-0.648,0-1.15-0.521-1.15-1.146V1.562c0-0.625,0.502-1.146,1.15-1.146
	c0.648,0,1.171,0.521,1.171,1.146v11.123h5.665c0.606,0,1.15,0.521,1.15,1.167C40.298,14.477,39.754,14.997,39.148,14.997z
	 M27.611,14.935c-0.104,0.042-0.251,0.063-0.397,0.063c-0.46,0-0.899-0.271-1.066-0.729l-1.024-2.708h-5.079l-1.024,2.708
	c-0.188,0.458-0.627,0.729-1.087,0.729c-0.146,0-0.272-0.021-0.397-0.063c-0.606-0.229-0.899-0.896-0.69-1.5l4.619-12.269
	c0.188-0.458,0.648-0.75,1.108-0.729c0.481-0.021,0.92,0.271,1.108,0.729l4.619,12.269C28.51,14.039,28.217,14.706,27.611,14.935z
	 M22.574,4.791L20.88,9.269h3.386L22.574,4.791z M12.856,12.852v0.021c-0.063,0.188-0.188,0.354-0.397,0.5
	c-1.317,1.021-2.968,1.625-4.745,1.625C3.47,14.997,0,11.685,0,7.519C0,3.333,3.47,0,7.713,0c1.777,0,3.47,0.604,4.766,1.625
	c0.543,0.396,0.627,1.166,0.23,1.687c-0.397,0.5-1.17,0.604-1.693,0.188c-0.899-0.687-2.048-1.125-3.303-1.125
	c-1.505,0-2.822,0.562-3.762,1.521C2.968,4.832,2.383,6.103,2.383,7.519c0,1.375,0.585,2.645,1.568,3.583
	c0.941,0.958,2.257,1.521,3.762,1.521c1.045,0,2.028-0.312,2.864-0.792V8.978H7.588c-0.648,0-1.191-0.542-1.191-1.187
	c0-0.667,0.543-1.167,1.191-1.167h4.118c0.021,0,0.021,0,0.021,0c0.021,0,0.021,0,0.021,0c0.669,0,1.212,0.5,1.212,1.167v4.603
	c0,0.146-0.042,0.229-0.063,0.354C12.876,12.789,12.876,12.81,12.856,12.852z M7.793,28.612h4.744V16.955c0,0,4.356,0,6.555,0
	c-1.486,3.421-0.921,8.7,1.174,12.228c0,4.06,0.064,8.235,0.064,11.659c-1.764,1.533-2.646,3.876-2.959,6.258
	c-2.206,0-4.834-0.027-4.834-0.027V34.699H7.793v12.373H0V16.955h7.793V28.612z M45.45,30.917c0-7.213,0.002-13.962,0.002-13.962
	h11.085c1.646,0,3.001,0.153,4.066,0.458c1.065,0.305,1.912,0.783,2.541,1.432c0.629,0.65,1.065,1.486,1.307,2.507
	c0.242,1.021,0.363,2.261,0.363,3.72c0,1.565-0.065,2.792-0.194,3.68c-0.129,0.889-0.331,1.585-0.605,2.089
	c-0.275,0.504-0.605,0.882-0.992,1.134c-0.387,0.252-0.84,0.497-1.355,0.736v0.239c0.194,0.133,0.395,0.278,0.605,0.438
	c0.209,0.159,0.395,0.424,0.557,0.796c0.258,0.477,0.524,1.2,0.799,2.168c0.274,0.969,0.54,2.327,0.799,4.078
	c0.194,1.22,0.339,2.202,0.436,2.944c0.097,0.743,0.185,1.34,0.266,1.79c0.08,0.451,0.145,0.796,0.194,1.035
	s0.121,0.464,0.218,0.676v0.199h-8.084c-0.097-0.239-0.186-0.497-0.266-0.776c-0.081-0.278-0.169-0.702-0.266-1.273
	c-0.097-0.57-0.226-1.359-0.387-2.367c-0.162-1.008-0.355-2.387-0.581-4.138c-0.097-0.689-0.194-1.246-0.291-1.671
	c-0.097-0.424-0.21-0.749-0.339-0.975c-0.129-0.225-0.29-0.371-0.484-0.438c-0.194-0.066-0.404-0.099-0.629-0.099h-1.162v11.737
	c0,0-0.373,0-0.953,0C53.192,38.187,48.111,34.344,45.45,30.917z M53.052,29.726h2.13c0.709,0,1.21-0.245,1.501-0.736
	c0.29-0.49,0.436-1.438,0.436-2.845c0-1.194-0.169-1.989-0.508-2.387c-0.339-0.398-0.88-0.597-1.622-0.597h-1.936V29.726z"/>
</svg>
